<svg t="1668169332268" class="icon" viewBox="0 0 1024 1024" version="1.1" xmlns="http://www.w3.org/2000/svg" p-id="2383" width="200" height="200"><path d="M348.16 599.552c-19.456 19.456-19.456 51.2 0 70.656 19.456 19.456 51.2 19.456 70.656 0 51.2-51.2 135.168-51.2 186.368 0 9.728 9.728 22.528 14.848 35.328 14.848s25.6-5.12 35.328-14.848c19.456-19.456 19.456-51.2 0-70.656-90.624-90.112-237.056-90.112-327.68 0z" p-id="2384"></path><path d="M765.952 509.44c9.728 9.728 22.528 14.848 35.328 14.848s25.6-5.12 35.328-14.848c19.456-19.456 19.456-51.2 0-70.656-178.688-178.688-470.016-178.688-649.216 0-19.456 19.456-19.456 51.2 0 70.656 19.456 19.456 51.2 19.456 70.656 0 140.288-140.288 367.616-140.288 507.904 0z" p-id="2385"></path><path d="M1009.152 265.728C876.544 133.12 699.904 59.904 512 59.904S147.456 133.12 14.848 265.728c-19.456 19.456-19.456 51.2 0 70.656 19.456 19.456 51.2 19.456 70.656 0 235.52-235.52 618.496-235.52 853.504 0 9.728 9.728 22.528 14.848 35.328 14.848s25.6-5.12 35.328-14.848c19.456-19.456 19.456-51.2-0.512-70.656z" p-id="2386"></path><path d="M443.392 815.616a68.608 68.608 0 1 0 137.216 0 68.608 68.608 0 1 0-137.216 0Z" p-id="2387"></path><path d="M865.792 677.888c-78.848 0-142.848 64-142.848 142.848 0 78.848 64 142.848 142.848 142.848 78.848 0 142.848-64 142.848-142.848 0.512-78.848-63.488-142.848-142.848-142.848z m62.976 163.328h-125.952c-11.264 0-19.968-8.704-19.968-19.968s8.704-19.968 19.968-19.968h125.952c11.264 0 19.968 8.704 19.968 19.968s-8.704 19.968-19.968 19.968z" p-id="2388"></path></svg>