<?xml version="1.0" standalone="no"?><!DOCTYPE svg PUBLIC "-//W3C//DTD SVG 1.1//EN" "http://www.w3.org/Graphics/SVG/1.1/DTD/svg11.dtd"><svg t="1710854626997" class="icon" viewBox="0 0 1024 1024" version="1.1" xmlns="http://www.w3.org/2000/svg" p-id="973" xmlns:xlink="http://www.w3.org/1999/xlink" width="200" height="200"><path d="M157.774505 0h511.999803l236.307601 236.307601v748.307405a39.778446 39.778446 0 0 1-6.655997 21.897838 38.95137 38.95137 0 0 1-17.644301 14.493533 38.518139 38.518139 0 0 1-15.084302 2.993229h-708.922804a39.3846 39.3846 0 0 1-39.3846-39.3846V39.3846a39.581523 39.581523 0 0 1 11.539688-27.844912A39.581523 39.581523 0 0 1 157.774505 0z" fill="#BDD9F9" p-id="974"></path><path d="M669.774308 0l236.307601 236.307601h-196.923001a39.463369 39.463369 0 0 1-38.636293-31.704603A40.093523 40.093523 0 0 1 669.774308 196.923001V0z" fill="#28BF9A" p-id="975"></path><path d="M962.401888 789.661235H61.951773a39.778446 39.778446 0 0 1-21.897838-6.695382 38.990754 38.990754 0 0 1-17.486763-32.728603v-258.402362a38.399985 38.399985 0 0 1 10.555073-26.742144c2.284307-2.363076 4.765537-4.489844 7.522459-6.301536l63.330437-40.566138v59.431362H920.181596v-59.076901l63.409207 40.684292a39.778446 39.778446 0 0 1 16.777839 23.315684c0.827077 3.150768 1.220923 6.41969 1.220923 9.688611v258.441747a38.596908 38.596908 0 0 1-3.111383 14.887379 40.447984 40.447984 0 0 1-8.507074 12.603072 38.675677 38.675677 0 0 1-19.967992 10.633842 37.257832 37.257832 0 0 1-7.601228 0.787692z" fill="#116DFF" p-id="976"></path><path d="M962.401888 805.415075H61.951773a52.263365 52.263365 0 0 1-10.751996-1.063384 50.018442 50.018442 0 0 1-10.35815-3.150768 58.683054 58.683054 0 0 1-9.531073-5.119998 51.751365 51.751365 0 0 1-8.349536-6.813536 52.381518 52.381518 0 0 1-6.85292-8.349536 58.367978 58.367978 0 0 1-5.080614-9.531073 51.633211 51.633211 0 0 1-3.93846-15.75384A52.972287 52.972287 0 0 1 6.813332 750.276635v-258.441747a55.335363 55.335363 0 0 1 6.734767-26.387682 53.878133 53.878133 0 0 1 18.589531-19.889224l87.591351-56.08367v72.388895h784.541237V389.513696l87.630735 56.241209a55.611056 55.611056 0 0 1 18.589532 19.889224 54.350748 54.350748 0 0 1 6.695382 26.387682v258.441747a51.830134 51.830134 0 0 1-2.402461 15.871993 55.532286 55.532286 0 0 1-10.082458 18.865224 59.15567 59.15567 0 0 1-11.894149 10.79138 54.350748 54.350748 0 0 1-19.731685 8.270766 60.494746 60.494746 0 0 1-10.673226 1.102769z m-874.023049-358.399862l-39.108908 25.009221a22.606761 22.606761 0 0 0-7.955689 8.467689 22.646145 22.646145 0 0 0-2.875076 11.224611v258.441747a24.733529 24.733529 0 0 0 1.811692 9.058458 22.094761 22.094761 0 0 0 5.119998 7.640612 24.024606 24.024606 0 0 0 12.091072 6.459075 22.68553 22.68553 0 0 0 4.607998 0.472615h900.450116a22.68553 22.68553 0 0 0 9.019073-1.811692 22.015992 22.015992 0 0 0 7.679997-5.119998 24.024606 24.024606 0 0 0 6.459075-12.091072 22.68553 22.68553 0 0 0 0.472615-4.607998v-258.441747a22.724914 22.724914 0 0 0-2.914461-11.224611 24.182145 24.182145 0 0 0-7.87692-8.467689l-39.108908-25.087991v46.158752h-31.50768l-816.127686 0.196923-0.236308-46.276905z" fill="#192C55" p-id="977"></path><path d="M424.920248 552.487172l72.310126 81.132277-77.981508 87.67012h29.932296l63.015361-72.349511 63.01536 72.349511h29.932296l-78.572277-87.709505 72.940279-81.092892h-29.932296l-57.343978 65.772283-57.383362-65.772283h-29.932297z" fill="#FFFFFF" p-id="978"></path><path d="M402.904257 542.641022h56.398747l52.893519 60.573515 52.854133-60.573515h56.516901l-81.801814 90.978427 87.355043 97.51627h-56.438132l-58.486131-67.190128-58.525516 67.190128H397.311644l86.64612-97.555655-81.053507-90.939042z m47.26152 19.6923h-3.308306l63.52736 71.286127-69.080589 77.82397h3.387076l67.505205-77.508894 67.426435 77.508894h3.465845l-69.789512-77.90274 64.078745-71.207357h-3.387076l-61.794437 70.892281-62.030746-70.892281z" fill="#FFFFFF" p-id="979"></path></svg>